<?xml version="1.0" encoding="UTF-8" standalone="no"?>
<!-- Created with Inkscape (http://www.inkscape.org/) -->

<svg
   xmlns:dc="http://purl.org/dc/elements/1.1/"
   xmlns:cc="http://creativecommons.org/ns#"
   xmlns:rdf="http://www.w3.org/1999/02/22-rdf-syntax-ns#"
   xmlns:svg="http://www.w3.org/2000/svg"
   xmlns="http://www.w3.org/2000/svg"
   xmlns:sodipodi="http://sodipodi.sourceforge.net/DTD/sodipodi-0.dtd"
   xmlns:inkscape="http://www.inkscape.org/namespaces/inkscape"
   width="480"
   height="160"
   id="svg5928"
   version="1.1"
   inkscape:version="0.48.5 r10040"
   sodipodi:docname="FLBCN.svg">
  <defs
     id="defs5930" />
  <sodipodi:namedview
     id="base"
     pagecolor="#ffffff"
     bordercolor="#666666"
     borderopacity="1.0"
     inkscape:pageopacity="0.0"
     inkscape:pageshadow="2"
     inkscape:zoom="0.75"
     inkscape:cx="360"
     inkscape:cy="45"
     inkscape:document-units="px"
     inkscape:current-layer="g2991"
     showgrid="false"
     inkscape:window-width="1600"
     inkscape:window-height="838"
     inkscape:window-x="-8"
     inkscape:window-y="-8"
     inkscape:window-maximized="1" />
  <metadata
     id="metadata5933">
    <rdf:RDF>
      <cc:Work
         rdf:about="">
        <dc:format>image/svg+xml</dc:format>
        <dc:type
           rdf:resource="http://purl.org/dc/dcmitype/StillImage" />
        <dc:title />
      </cc:Work>
    </rdf:RDF>
  </metadata>
  <g
     id="layer1"
     inkscape:label="Layer 1"
     inkscape:groupmode="layer"
     transform="translate(0,70)">
    <g
       id="g2991"
       transform="translate(-132.66666,3.3333322e-8)">
      <text
         sodipodi:linespacing="125%"
         id="text5335"
         y="-16.430756"
         x="155.25876"
         style="font-size:40.78323746000000200px;font-style:normal;font-weight:normal;line-height:125%;letter-spacing:0px;word-spacing:0px;fill:#000000;fill-opacity:1;stroke:none;font-family:Sans"
         xml:space="preserve"
         transform="scale(0.99692688,1.0030826)"><tspan
           y="-16.430756"
           x="155.25876"
           id="tspan5337"
           sodipodi:role="line"><tspan
             id="tspan5339"
             style="font-size:40.78323746000000200px;font-style:normal;font-variant:normal;font-weight:normal;font-stretch:normal;text-align:start;line-height:125%;writing-mode:lr-tb;text-anchor:start;fill:#000000;stroke:none;font-family:Serif;-inkscape-font-specification:Serif">UTEC </tspan></tspan></text>
      <text
         sodipodi:linespacing="125%"
         id="text5341"
         y="57.086723"
         x="413.69507"
         style="font-size:41.11695480000000200px;font-style:normal;font-weight:normal;line-height:125%;letter-spacing:0px;word-spacing:0px;fill:#000000;fill-opacity:1;stroke:none;font-family:Sans"
         xml:space="preserve"
         transform="scale(0.99692688,1.0030826)"><tspan
           style="font-size:41.11695480000000200px;font-style:normal;font-variant:normal;font-weight:normal;font-stretch:normal;text-align:start;line-height:125%;writing-mode:lr-tb;text-anchor:start;fill:#000000;fill-opacity:1;stroke:none;font-family:Raavi;-inkscape-font-specification:Raavi"
           y="57.086723"
           x="413.69507"
           id="tspan5343"
           sodipodi:role="line">ACADEMY</tspan><tspan
           style="fill:#000000;fill-opacity:1;stroke:none"
           id="tspan5345"
           y="108.48292"
           x="413.69507"
           sodipodi:role="line" /></text>
      <path
         style="fill:#000000;fill-opacity:0.95179713000000021;stroke:none"
         inkscape:transform-center-x="-12.851554"
         d="m 316.9073,66.634074 4.93843,2.943151 9.39853,5.460581 0,9.289204 c -38.44488,-2.704446 -68.80492,-34.923052 -68.80492,-74.29282 0,-11.9129857 2.79356,-23.174616 7.7351,-33.160795 l 7.73516,4.477214 0,11.6742767 0,17.0511563 0,16.967494 0,17.009264 21.31301,12.511187 -0.14539,-12.573662 c -2.71325,-2.47023 -4.73591,-5.325793 -6.80857,-8.937935 -7.22588,-12.592964 -6.44788,-26.6564628 1.73783,-31.4116298 8.18566,-4.7551636 20.67925,1.5986216 27.90515,14.1916288 7.22595,12.592965 6.44796,26.656419 -1.73775,31.411628 -1.04291,0.605856 -2.00499,0.961053 -3.1705,1.217059 z"
         id="path5355"
         inkscape:connector-curvature="0"
         sodipodi:nodetypes="cccccccccccccsssscc" />
      <path
         sodipodi:nodetypes="csscccccsccccccccc"
         inkscape:connector-curvature="0"
         id="path5357"
         d="m 353.14319,49.314275 c -8.18567,-4.75516 -8.96369,-18.81863 -1.73773,-31.411628 7.22592,-12.5930026 19.71957,-18.9467886 27.90525,-14.1916233 1.25253,0.7276082 2.06689,1.3477525 3.09733,2.3836012 l 12.6507,-8.1217672 0,-17.7310927 7.29847,-4.226181 0,0 c 5.21363,10.199687 8.17178,21.7607341 8.17178,34.018606 0,39.892567 -31.1746,72.434454 -70.34365,74.376473 l 0,-8.515078 10.93735,-6.31836 14.6384,-8.515119 14.65933,-8.515121 14.63838,-8.494185 -0.008,-23.570382 -10.38377,7.438825 c -4.08847,12.099666 -21.38377,26.668348 -31.52469,21.393032 z"
         style="fill:#000000;fill-opacity:1;fill-rule:nonzero;stroke:#000000" />
      <path
         sodipodi:nodetypes="cccccsssccccccc"
         inkscape:connector-curvature="0"
         id="path5359"
         d="m 336.48416,-64.4678 c -25.84941,0 -48.59605,13.337781 -61.83916,33.537419 l 7.58953,4.414451 c 0,0 12.63052,-6.914613 16.07317,-8.899727 3.79078,1.949959 8.12117,4.512004 11.82344,6.49017 -1.22651,0.648731 -1.59502,2.378986 -1.59502,3.482167 0,9.510366 11.71555,17.220043 26.16743,17.220043 14.45195,0 26.16754,-7.709677 26.16754,-17.220043 0,-9.510372 -11.71559,-17.22005 -26.16754,-17.22005 -3.34659,0.04049 -6.6698,1.00066 -9.99899,1.63389 l -8.53573,-4.764875 20.2789,-12.224368 c 19.7009,11.415833 35.02127,20.335387 53.32956,30.937908 l 8.02615,-4.644624 C 384.4869,-51.480839 361.99292,-64.4678 336.48416,-64.4678"
         style="fill:#000000;fill-opacity:1;stroke:none" />
    </g>
  </g>
</svg>
