<?xml version="1.0" encoding="UTF-8" standalone="no"?>
<!-- Created with Inkscape (http://www.inkscape.org/) -->

<svg
   xmlns:dc="http://purl.org/dc/elements/1.1/"
   xmlns:cc="http://creativecommons.org/ns#"
   xmlns:rdf="http://www.w3.org/1999/02/22-rdf-syntax-ns#"
   xmlns:svg="http://www.w3.org/2000/svg"
   xmlns="http://www.w3.org/2000/svg"
   xmlns:sodipodi="http://sodipodi.sourceforge.net/DTD/sodipodi-0.dtd"
   xmlns:inkscape="http://www.inkscape.org/namespaces/inkscape"
   id="svg2991"
   version="1.1"
   inkscape:version="0.48.5 r10040"
   width="150"
   height="150"
   sodipodi:docname="318-53553.png">
  <metadata
     id="metadata2997">
    <rdf:RDF>
      <cc:Work
         rdf:about="">
        <dc:format>image/svg+xml</dc:format>
        <dc:type
           rdf:resource="http://purl.org/dc/dcmitype/StillImage" />
        <dc:title></dc:title>
      </cc:Work>
    </rdf:RDF>
  </metadata>
  <defs
     id="defs2995" />
  <sodipodi:namedview
     pagecolor="#ffffff"
     bordercolor="#666666"
     borderopacity="1"
     objecttolerance="10"
     gridtolerance="10"
     guidetolerance="10"
     inkscape:pageopacity="0"
     inkscape:pageshadow="2"
     inkscape:window-width="1600"
     inkscape:window-height="838"
     id="namedview2993"
     showgrid="false"
     inkscape:zoom="1.5733333"
     inkscape:cx="63.877119"
     inkscape:cy="75"
     inkscape:window-x="-8"
     inkscape:window-y="-8"
     inkscape:window-maximized="1"
     inkscape:current-layer="svg2991" />
  <path
     style="fill:#000000"
     d="M 42.786019,139.62437 C 33.295201,134.87971 19.454437,121.84385 13.684463,112.21523 6.3217853,99.928767 4.0543807,91.475949 4.1892493,76.817338 4.5090989,42.053579 24.439317,15.748439 57.069462,7.0227501 81.563914,0.47264108 107.22975,7.3929357 125.34461,25.431822 c 22.0696,21.977032 27.34351,53.863512 13.53813,81.852708 -6.14069,12.44973 -14.22025,21.48955 -26.02762,29.12103 -8.06895,5.21521 -16.591448,8.04339 -18.505483,6.14103 -0.523835,-0.52066 -1.332251,-7.44892 -1.796494,-15.39615 -0.464233,-7.94725 -1.073585,-15.58704 -1.354099,-16.97734 -0.407224,-2.01834 0.771855,-2.85947 5.849883,-4.17319 9.428793,-2.43932 16.546103,-7.736851 20.011083,-14.894548 5.45667,-11.271951 4.98758,-28.051484 -0.9752,-34.883853 -1.41582,-1.622292 -1.75272,-3.744598 -1.12531,-7.088948 1.21701,-6.487256 -1.33658,-15.655266 -4.34973,-15.616601 -1.27461,0.01636 -5.05953,1.321374 -8.41093,2.900037 -5.288182,2.490983 -8.777631,2.895393 -26.404898,3.060202 -18.466146,0.172652 -20.926563,-0.08962 -27.081946,-2.886808 -11.5661,-5.255984 -12.863926,-4.336176 -12.863926,9.117055 0,5.800161 -0.820096,9.324096 -3.04672,13.091701 -2.480056,4.196434 -3.020567,7.044138 -2.906119,15.310997 0.156885,11.332155 2.373152,17.695456 8.221201,23.604547 4.320392,4.365499 13.176361,8.819459 17.62466,8.864049 3.969283,0.0397 4.791815,1.74342 3.051608,6.32052 -1.763344,4.63794 -3.509749,5.84835 -8.477102,5.87536 -5.134046,0.0279 -8.275114,-1.83 -15.052919,-8.90372 -3.323494,-3.46858 -6.953023,-5.97061 -8.661176,-5.97061 -3.416549,0 -4.03245,3.72819 -0.819578,4.96108 1.166404,0.44761 3.934378,4.02742 6.151054,7.95516 4.685511,8.30225 10.034662,11.45753 19.424096,11.45753 l 6.298082,0 -0.409287,7.109 c -0.37124,6.44812 -0.724,7.14494 -3.794534,7.4954 -1.861883,0.21251 -6.661278,-1.25138 -10.665317,-3.25309 z"
     id="path3001"
     inkscape:connector-curvature="0" />
</svg>
