<?xml version="1.0" encoding="UTF-8" standalone="no"?>
<!-- Created with Inkscape (http://www.inkscape.org/) -->

<svg
   xmlns:dc="http://purl.org/dc/elements/1.1/"
   xmlns:cc="http://creativecommons.org/ns#"
   xmlns:rdf="http://www.w3.org/1999/02/22-rdf-syntax-ns#"
   xmlns:svg="http://www.w3.org/2000/svg"
   xmlns="http://www.w3.org/2000/svg"
   xmlns:sodipodi="http://sodipodi.sourceforge.net/DTD/sodipodi-0.dtd"
   xmlns:inkscape="http://www.inkscape.org/namespaces/inkscape"
   id="svg3009"
   version="1.1"
   inkscape:version="0.48.5 r10040"
   width="626"
   height="626"
   sodipodi:docname="menu.svg">
  <metadata
     id="metadata3015">
    <rdf:RDF>
      <cc:Work
         rdf:about="">
        <dc:format>image/svg+xml</dc:format>
        <dc:type
           rdf:resource="http://purl.org/dc/dcmitype/StillImage" />
      </cc:Work>
    </rdf:RDF>
  </metadata>
  <defs
     id="defs3013" />
  <sodipodi:namedview
     pagecolor="#ffffff"
     bordercolor="#666666"
     borderopacity="1"
     objecttolerance="10"
     gridtolerance="10"
     guidetolerance="10"
     inkscape:pageopacity="0"
     inkscape:pageshadow="2"
     inkscape:window-width="1600"
     inkscape:window-height="838"
     id="namedview3011"
     showgrid="false"
     inkscape:zoom="0.37699681"
     inkscape:cx="313"
     inkscape:cy="244.23881"
     inkscape:window-x="-8"
     inkscape:window-y="-8"
     inkscape:window-maximized="1"
     inkscape:current-layer="g3019" />
  <g
     id="g3019"
     transform="translate(95.49153,71.618637)">
    <path
       style="fill:#000000"
       d="m 330.79163,552.13136 c -0.035,-0.6875 -17.2478,-26.9 -38.25,-58.25 l -38.1857,-57 -126,-0.54472 c -136.9778029,-0.59218 -128.72730288,-0.249 -146.487203,-6.09325 -23.2406,-7.64782 -45.5438,-24.80544 -59.5047,-45.77624 -8.1535,-12.24756 -12.86528,-22.99914 -16.88832,-38.53674 l -3.11977,-12.04905 0,-151 0,-150.999999 2.71594,-11.02986 c 11.38605,-46.24043 43.01375,-77.86819 89.2541501,-89.2542 l 11.0299,-2.71594 209.5000029,0 209.5,0 11.0298,2.71594 c 31.0354,7.642 56.1559,24.81954 71.9997,49.23382 9.3024,14.3344002 12.9812,22.8798502 17.2413,40.05024 l 2.7292,11 0,150.999999 0,151 -3.1198,12.04905 c -4.023,15.5376 -8.7348,26.28918 -16.8883,38.53674 -19.194,28.83162 -49.9801,47.37291 -84.7965,51.06973 -6.1575,0.6538 -11.8704,1.75601 -12.6954,2.44934 -0.825,0.69334 -18.6,26.93471 -39.5,58.31416 -20.9,31.37945 -38.3375,57.05972 -38.75,57.06726 -0.4125,0.008 -0.7789,-0.54878 -0.8143,-1.23628 z m -116.1646,-252 0.2712,-19.75 -98.0212,0 -98.021103,0 0,19.33333 c 0,10.63334 0.3022,19.63555 0.6716,20.00493 0.3694,0.36937 44.3569,0.55687 97.750003,0.41666 l 97.0784,-0.25492 0.2711,-19.75 z m 196.2289,-78.14301 c 0,-16.7614 -0.2147,-19.47538 -1.5818,-20 -0.87,-0.33385 -88.3582,-0.60699 -194.4182,-0.60699 -106.06,0 -193.548203,0.27314 -194.418203,0.60699 -1.3671,0.52462 -1.5818,3.2386 -1.5818,20 l 0,19.39301 196.000003,0 196,0 0,-19.39301 z m -0.2289,-78.35699 -0.2711,-19.75 -195.5,0 -195.500003,0 -0.2711,19.75 -0.2712,19.75 196.042303,0 196.0423,0 -0.2712,-19.75 z m -0.2711,-78.249999 0,-19.5 -195.5,0 -195.500003,0 -0.2734,18.46783 c -0.1504,10.1573 -0.052,19.04593 0.2196,19.75251 0.3996,1.04138 37.4778,1.23686 195.773403,1.03217 l 195.2804,-0.25251 0,-19.5 z"
       id="path3025"
       inkscape:connector-curvature="0" />
  </g>
</svg>
