<?xml version="1.0" encoding="UTF-8" standalone="no"?>
<!-- Created with Inkscape (http://www.inkscape.org/) -->

<svg
   xmlns:dc="http://purl.org/dc/elements/1.1/"
   xmlns:cc="http://creativecommons.org/ns#"
   xmlns:rdf="http://www.w3.org/1999/02/22-rdf-syntax-ns#"
   xmlns:svg="http://www.w3.org/2000/svg"
   xmlns="http://www.w3.org/2000/svg"
   xmlns:sodipodi="http://sodipodi.sourceforge.net/DTD/sodipodi-0.dtd"
   xmlns:inkscape="http://www.inkscape.org/namespaces/inkscape"
   id="svg2999"
   version="1.1"
   inkscape:version="0.48.5 r10040"
   width="1000"
   height="500"
   sodipodi:docname="proyect.svg">
  <metadata
     id="metadata3005">
    <rdf:RDF>
      <cc:Work
         rdf:about="">
        <dc:format>image/svg+xml</dc:format>
        <dc:type
           rdf:resource="http://purl.org/dc/dcmitype/StillImage" />
        <dc:title></dc:title>
      </cc:Work>
    </rdf:RDF>
  </metadata>
  <defs
     id="defs3003" />
  <sodipodi:namedview
     pagecolor="#ffffff"
     bordercolor="#666666"
     borderopacity="1"
     objecttolerance="10"
     gridtolerance="10"
     guidetolerance="10"
     inkscape:pageopacity="0"
     inkscape:pageshadow="2"
     inkscape:window-width="1600"
     inkscape:window-height="838"
     id="namedview3001"
     showgrid="false"
     inkscape:zoom="0.99846626"
     inkscape:cx="504.89764"
     inkscape:cy="222.09793"
     inkscape:window-x="-8"
     inkscape:window-y="-8"
     inkscape:window-maximized="1"
     inkscape:current-layer="svg2999" />
  <g
     id="g3046"
     transform="matrix(1.0679105,0,0,1.0679105,-435.16189,-21.136132)">
    <path
       style="fill:#9f9f9f"
       d="m 823.26125,445.85296 c -21.76028,-6.60615 -47.17458,-24.77572 -76.24693,-54.51162 -28.23974,-28.88428 -55.58947,-65.85154 -70.15232,-94.82135 -1.6936,-3.36908 -2.56345,-4.32146 -5.04344,-5.52201 -6.11439,-2.95993 -15.61934,-15.55342 -15.61934,-20.6947 0,-1.39873 0.79092,-2.64075 2.99323,-4.70046 l 2.99324,-2.79942 -1.69903,-6.62944 c -2.17935,-8.50364 -3.05513,-18.19515 -2.17815,-24.10383 1.00329,-6.75979 3.20211,-10.18626 10.25895,-15.98679 5.20543,-4.27874 6.22871,-5.45669 7.18247,-8.26806 2.56347,-7.55638 6.77528,-14.08666 13.85188,-21.47687 7.73377,-8.07651 21.50421,-14.99454 32.60842,-16.38192 3.72567,-0.4655 4.32307,-0.83026 13.85576,-8.46015 5.47922,-4.38552 11.13185,-8.96449 12.56139,-10.17549 5.68187,-4.81324 13.31302,-5.99227 22.9156,-3.54052 16.06531,4.10184 37.03941,17.0605 58.88801,36.38343 5.39514,4.77148 7.07399,5.92051 7.95533,5.44476 0.61439,-0.33165 3.34968,-2.48066 6.07842,-4.77558 4.29798,-3.61466 5.29518,-4.15925 7.45813,-4.073 2.15329,0.0859 2.50001,-0.10081 2.52027,-1.35693 0.0392,-2.42969 1.38565,-4.06933 7.2689,-8.85172 7.94255,-6.45636 8.61137,-6.85809 11.41757,-6.85809 2.30018,0 2.50426,-0.15112 2.50426,-1.85429 0,-2.12307 2.12457,-4.35221 10.15334,-10.65312 4.34859,-3.41274 5.60043,-4.06621 7.7896,-4.06621 2.39181,0 2.60835,-0.1486 2.60835,-1.78999 0,-1.37616 1.17505,-2.88768 5.08275,-6.53816 l 5.08276,-4.74817 -3.01098,-5.22911 c -7.35919,-12.78056 -14.50157,-28.12746 -19.81268,-42.571735 -1.78694,-4.8598 -5.07361,-12.73818 -7.3037,-17.507499 -5.40148,-11.551728 -7.23858,-17.070203 -7.68295,-23.078916 -0.28174,-3.809781 -0.12264,-5.483764 0.66619,-7.009202 1.94587,-3.762901 2.3747,-3.881991 14.6507,-4.068713 17.40817,-0.264784 18.72056,-0.184868 24.49887,1.491803 10.17988,2.953858 17.25113,6.680732 34.56663,18.218208 5.83391,3.887188 13.14288,8.442513 16.24214,10.122943 18.43477,9.995376 36.70557,28.442716 53.35491,53.870451 3.3424,5.10468 9.8881,14.50192 14.546,20.88276 9.6987,13.2861 17.8731,25.48537 24.4324,36.46195 6.7991,11.37789 17.1063,32.7514 21.5798,44.74876 2.1752,5.83391 5.6227,14.14193 7.6611,18.46226 7.0257,14.89126 9.0361,25.06152 5.9862,30.28366 -2.0536,3.51622 -3.7136,4.10976 -9.8877,3.53541 -2.917,-0.27136 -6.7952,-0.36464 -8.6183,-0.20729 -1.8231,0.15734 -6.4472,0.2636 -10.2757,0.23611 -5.9417,-0.0426 -7.8883,-0.35565 -13.2949,-2.13789 -8.7392,-2.88077 -17.5503,-7.5392 -30.7909,-16.27913 -6.1985,-4.09156 -14.65137,-9.35323 -18.7841,-11.69261 -4.13273,-2.33938 -10.0551,-6.29218 -13.16082,-8.784 -6.54083,-5.24793 -4.9565,-5.51528 -14.79265,2.49617 -3.46389,2.8213 -7.38348,5.57343 -8.71021,6.11584 -1.32674,0.54241 -2.72115,1.66415 -3.09868,2.49276 -0.90174,1.9791 -14.91536,13.34713 -17.6902,14.35053 -1.18735,0.42935 -2.64609,1.60554 -3.24166,2.61374 -1.216,2.05854 -14.82557,12.92295 -17.70469,14.13352 -1.53123,0.64384 -5.24191,4.93904 -5.24191,6.06765 0,0.16801 2.10761,4.00372 4.68357,8.5238 8.57892,15.05352 16.37267,33.5323 20.01799,47.46212 1.74739,6.67729 2.00377,8.81737 2.06489,17.23656 0.0989,13.62291 -0.51272,14.8199 -12.92088,25.28696 -2.72095,2.2953 -3.86888,3.81298 -4.5129,5.9665 -2.01366,6.73347 -6.06224,13.101 -12.92366,20.3261 -5.34791,5.63137 -10.39174,9.2698 -17.23076,12.42963 -5.25971,2.43012 -14.07293,4.93705 -17.35648,4.93705 -1.75928,0 -4.41736,1.84101 -15.28861,10.58905 -8.4769,6.82133 -14.20362,10.94932 -16.0947,11.60153 -4.36758,1.50636 -12.60541,1.25492 -18.61009,-0.56803 z"
       id="path3017"
       inkscape:connector-curvature="0" />
    <path
       style="fill:#383838"
       d="m 840.64929,444.49986 c 4.10972,-1.60408 6.96496,-4.37448 8.91272,-8.64792 1.66494,-3.6529 1.81747,-4.65515 1.76868,-11.62152 -0.4202,-59.99643 -104.35824,-189.52644 -164.96749,-205.58634 -11.75528,-3.11485 -20.1866,-0.42106 -23.94505,7.6504 -0.86095,1.84894 -1.56828,2.97888 -1.57184,2.51099 -0.0183,-2.40499 3.58807,-7.60231 7.43513,-10.71512 4.09715,-3.31516 4.18967,-3.35037 8.79094,-3.34577 16.6823,0.0166 37.60914,11.23947 69.52607,37.28598 3.46269,2.8258 6.63892,5.13782 7.0583,5.13782 0.62344,0 8.44905,-5.93393 11.7779,-8.93084 0.68118,-0.61327 0.64439,-1.32558 -0.19075,-3.69263 -1.52195,-4.31366 -2.31398,-13.54933 -1.53266,-17.87199 2.84719,-15.75215 18.84679,-27.18073 38.05204,-27.18073 6.04168,0 14.03737,1.17509 17.76924,2.61146 2.10811,0.81139 2.4079,0.6373 10.50169,-6.09842 l 3.97448,-3.30759 -5.20798,-4.98685 c -28.14383,-26.94879 -58.74508,-42.69378 -73.12025,-37.62192 -1.52841,0.53926 -3.72878,1.62818 -4.8897,2.41983 l -2.11077,1.43936 1.65736,-1.66382 c 3.88202,-3.89716 13.09513,-4.97824 22.22005,-2.60733 15.19325,3.94763 37.22743,17.79411 57.82942,36.34054 3.37213,3.03567 6.58317,5.51941 7.13565,5.51941 0.55247,0 1.56635,-0.35088 2.25305,-0.77974 2.501,-1.56189 10.9229,3.10483 20.22858,11.20902 2.8337,2.46784 5.9447,5.13989 6.91333,5.93791 l 1.76114,1.45095 3.64339,-3.02557 c 2.00387,-1.66406 3.64339,-3.41521 3.64339,-3.89147 0,-2.68707 -12.96978,-14.50225 -19.26437,-17.54941 -3.11209,-1.50654 -3.14961,-1.56053 -1.73666,-2.49869 0.89958,-0.5973 1.44416,-1.64466 1.44416,-2.77746 0,-1.95281 1.97165,-4.90145 4.0051,-5.98973 2.56382,-1.37211 12.77896,4.70147 22.84416,13.58236 2.55233,2.25202 5.01507,4.31569 5.47275,4.58594 0.5085,0.30026 2.37784,-0.723 4.80635,-2.63095 2.18581,-1.71727 3.97421,-3.2132 3.97421,-3.3243 0,-0.82574 -8.54879,-9.54507 -12.25048,-12.49485 -6.11085,-4.8696 -11.11941,-7.225 -14.22616,-6.69025 -1.71857,0.29582 -2.09073,0.22207 -1.36704,-0.27091 0.54693,-0.37256 2.22577,-0.68196 3.73076,-0.68754 1.63937,-0.006 3.07454,-0.41765 3.57996,-1.02665 0.75184,-0.90591 0.99508,-0.87961 2.23575,0.24177 0.76566,0.69205 2.73458,2.03031 4.37537,2.97389 4.37875,2.51813 14.7863,10.96837 21.02422,17.07027 9.80362,9.58986 17.39105,21.14857 24.00613,36.57098 5.65377,13.18121 7.98975,22.18607 8.00021,30.8396 0.005,4.5927 0.56089,5.04256 2.98968,2.42185 2.52189,-2.72116 3.21397,-5.78398 2.74633,-12.15389 -1.07967,-14.70653 -13.10354,-38.00951 -30.31027,-58.74313 -6.77494,-8.1636 -18.15353,-18.61842 -23.48422,-21.57766 -5.17952,-2.87532 -9.06538,-3.42024 -10.22254,-1.43353 -0.60726,1.04261 -0.67776,1.04858 -0.69588,0.0589 -0.0319,-1.7406 3.84757,-4.65383 5.52461,-4.14866 5.14794,1.5507 12.72122,6.55746 21.45682,14.18527 l 5.45588,4.76401 3.96722,-3.11681 c 3.88421,-3.05162 3.948,-3.15398 3.04885,-4.89275 -1.12545,-2.17637 -9.66849,-10.37093 -13.67007,-13.11243 -5.28216,-3.61884 -8.59903,-5.01015 -11.01103,-4.61873 -1.31174,0.21287 -2.06787,0.10507 -1.84075,-0.26241 0.21199,-0.34303 1.65064,-0.62368 3.19699,-0.62368 3.36573,0 4.4026,-0.87608 4.4026,-3.71987 0,-2.86739 3.37708,-5.85456 5.90573,-5.22389 4.93149,1.22999 13.4508,6.93662 22.13675,14.82823 l 4.50796,4.09569 3.94459,-3.09905 c 2.16952,-1.70447 3.94459,-3.45473 3.94459,-3.88945 0,-1.12486 -8.92519,-10.15087 -13.28003,-13.43004 -2.01703,-1.51881 -5.35862,-3.53578 -7.42574,-4.48214 -3.63717,-1.66515 -3.82895,-1.6849 -5.94536,-0.61252 -1.20283,0.60947 -2.74198,1.59423 -3.42034,2.18834 -1.04108,0.9118 -1.00445,0.69162 0.23495,-1.41216 0.80759,-1.37081 2.1807,-3.05271 3.05136,-3.73758 l 1.58302,-1.2452 -3.6312,-7.31398 c -5.56453,-11.20812 -9.71447,-21.31715 -9.29441,-22.640675 0.34651,-1.09174 4.942,-3.34128 6.82578,-3.34128 0.44358,0 0.80652,-0.29833 0.80652,-0.66295 0,-0.36461 0.39604,-0.66294 0.88009,-0.66294 2.0182,0 39.81826,-17.26349 40.89206,-18.67562 0.18596,-0.24456 1.13462,-0.64456 2.10812,-0.8889 1.44312,-0.36219 3.78688,0.68315 12.69012,5.65993 9.30199,5.19968 11.90397,7.02639 17.55999,12.32795 8.45774,7.927705 13.62922,14.169545 21.35426,25.774125 3.3982,5.10467 9.7985,14.20358 14.2231,20.2198 20.8896,28.40469 32.8705,49.47604 41.7077,73.35363 2.0442,5.52332 5.5004,13.82178 7.6803,18.44103 6.4851,13.74164 7.6266,19.97996 4.2702,23.33634 -1.6146,1.61467 -1.9291,1.67728 -5.8007,1.15463 -4.7599,-0.64256 -7.8781,-0.62871 -15.8483,0.0703 -4.522,0.39659 -6.8425,0.26034 -10.6072,-0.62279 -7.3549,-1.72537 -19.4916,-8.00982 -33.0229,-17.09944 -14.79413,-9.93785 -21.91925,-13.9362 -23.99715,-13.46627 -0.82349,0.18624 -2.36019,0.47884 -3.41488,0.65023 -1.05469,0.17139 -2.66176,0.99488 -3.57126,1.83 l -1.65363,1.51838 0.47825,-1.98883 c 0.26304,-1.09386 0.63331,-4.28999 0.82284,-7.10252 0.30749,-4.56309 0.0906,-5.91933 -2.01455,-12.59595 -1.29752,-4.11524 -3.44597,-9.7197 -4.77434,-12.45434 -3.09842,-6.37862 -8.19479,-14.58478 -9.05774,-14.58478 -0.36743,0 -2.20108,1.25348 -4.07478,2.78551 -1.8737,1.53204 -3.51197,2.85544 -3.64061,2.9409 -0.12863,0.0855 1.77134,4.27641 4.22217,9.31323 7.69944,15.8235 11.17,27.72061 10.67993,36.61085 -0.20401,3.70104 -0.10078,3.54466 -4.94656,7.49354 -0.76697,0.62501 -2.6114,1.75721 -4.09875,2.51599 -1.48734,0.75879 -2.8708,1.81363 -3.07436,2.34408 -0.20356,0.53046 -0.60731,0.96447 -0.89724,0.96447 -0.28992,0 -0.087,-1.41705 0.45084,-3.14899 2.56507,-8.25928 -2.05594,-24.22967 -11.60524,-40.10815 -1.69943,-2.8258 -3.33169,-5.13782 -3.62725,-5.13782 -0.7857,0 -7.67187,5.53483 -7.71542,6.20135 -0.0204,0.31147 1.90265,4.54369 4.27332,9.40492 7.41981,15.21486 10.08598,24.00313 10.33752,34.07477 l 0.13975,5.59522 -3.21914,2.79268 c -1.77052,1.53597 -4.27733,3.12075 -5.57069,3.52174 -1.58175,0.49041 -2.85059,1.5446 -3.87596,3.22032 -1.20809,1.97434 -5.43652,5.48514 -5.43652,4.51387 0,-0.12245 1.15742,-1.38006 2.57203,-2.79467 4.4782,-4.47818 4.90306,-10.96539 1.49455,-22.82004 -1.59417,-5.54445 -7.96975,-18.9908 -11.0129,-23.22664 -1.28419,-1.78751 -2.3349,-3.5564 -2.3349,-3.93088 0,-0.37446 -1.91151,0.85094 -4.24779,2.72312 -4.08781,3.27575 -4.217,3.46998 -3.43032,5.15726 0.44961,0.96431 2.46633,5.18404 4.48159,9.37717 7.21674,15.01578 10.00835,24.58506 9.75445,33.437 -0.12738,4.44089 -0.25531,4.7934 -2.48125,6.83688 -2.99899,2.75316 -3.88998,2.75018 -2.18577,-0.007 7.94545,-12.85601 -10.80897,-52.41438 -37.50658,-79.11199 -11.4343,-11.4343 -21.46579,-17.17149 -24.5797,-14.05758 -2.05813,2.05813 -0.44509,4.10836 7.1598,9.1004 11.81147,7.75335 23.87991,19.49793 31.33103,30.4903 6.87918,10.14859 14.77032,27.56798 17.74303,39.16711 0.79431,3.09927 1.54511,8.31995 1.66845,11.60153 0.19291,5.13271 0.3781,5.93715 1.32518,5.75643 0.60551,-0.11554 0.92804,0.0697 0.71673,0.41158 -0.21132,0.34191 -1.29031,0.80288 -2.39777,1.02437 -1.27075,0.25415 -2.22862,0.96835 -2.59652,1.93597 -0.32061,0.8433 -1.06151,1.93043 -1.64641,2.41587 -0.58492,0.48543 -1.06349,1.52702 -1.06349,2.31463 0,0.78762 2.38471,5.74803 5.29935,11.02315 4.92396,8.91172 11.75065,23.5053 14.25528,30.47388 3.51052,9.76722 4.28896,12.35349 5.62427,18.68589 1.99712,9.47087 1.75588,22.34194 -0.51216,27.32547 -0.81387,1.78829 -1.66595,3.06525 -1.8935,2.83769 -0.22757,-0.22756 0.279,-1.98903 1.12571,-3.91438 2.23442,-5.08094 2.2538,-16.71884 0.0434,-26.04075 -3.67816,-15.51153 -11.47283,-33.63451 -22.81053,-53.03557 -5.37152,-9.19174 -16.09423,-25.59849 -18.63065,-28.50662 -0.95404,-1.09385 -2.70235,-3.40525 -3.88514,-5.13643 -1.18278,-1.73118 -2.37086,-3.07364 -2.64016,-2.98325 -0.36808,0.12355 -42.19023,33.77161 -78.96331,63.53001 -1.25836,1.01833 -1.13214,1.29841 4.33236,9.61271 31.65723,48.16683 46.0109,84.24509 42.31101,106.34958 -0.79132,4.7276 -0.99819,5.12446 -4.23102,8.11686 -3.59769,3.33013 -6.11345,4.78898 -9.36551,5.43092 -1.67385,0.33041 -1.59736,0.2398 0.48294,-0.57218 z m 70.73387,-167.60888 c 1.50909,-2.41481 1.70309,-10.33075 0.38868,-15.85968 -2.12303,-8.93028 -8.62737,-23.24531 -13.41267,-29.51917 l -1.66215,-2.17917 -2.64965,2.15044 c -1.45731,1.18275 -3.23214,2.61345 -3.94407,3.17935 -1.26119,1.0025 -1.17597,1.27471 3.32065,10.60712 2.53829,5.26801 5.55523,12.25431 6.70432,15.5251 1.87428,5.33499 8.75628,17.58764 9.87853,17.58764 0.2443,0 0.86367,-0.67123 1.37636,-1.49162 z m -88.6894,-0.79086 c 2.42252,-0.51347 5.55494,-1.52639 6.96092,-2.25093 3.44681,-1.77623 8.00808,-5.78512 9.19604,-8.08238 0.95978,-1.85602 0.93015,-1.91138 -2.8349,-5.2988 -4.2598,-3.83253 -9.15674,-7.27787 -15.07487,-10.60622 -6.80657,-3.828 -17.95145,-16.31201 -18.70439,-20.95186 -0.19404,-1.19572 0.1657,-6.35904 0.79941,-11.47405 0.63372,-5.11501 0.95526,-10.34986 0.71454,-11.63301 l -0.43768,-2.333 -4.47128,0 c -12.49299,0 -24.96432,7.35695 -30.07728,17.74286 -2.01774,4.09861 -2.16984,4.8769 -2.16262,11.06667 0.007,5.62673 0.26961,7.28426 1.69834,10.70117 6.21481,14.86311 21.55283,28.10575 37.45868,32.34127 7.25254,1.93126 10.73935,2.09151 16.93509,0.77829 z m 68.97308,-27.04334 c -8.35231,-16.74342 -22.98642,-35.73945 -36.20395,-46.99512 -4.99366,-4.25245 -11.83057,-8.53596 -13.62424,-8.53596 -0.43663,0 4.59869,5.61313 11.1896,12.47363 13.83358,14.39943 24.20396,26.68339 34.29867,40.62763 3.91917,5.4137 7.26269,9.70616 7.43006,9.53879 0.16737,-0.16737 -1.2232,-3.3664 -3.09014,-7.10897 z m 67.53947,-9.81007 c 2.50578,-1.34105 3.93625,-5.4581 3.93625,-11.32895 0,-15.94198 -14.48305,-43.29141 -34.89758,-65.89972 -12.53109,-13.8777 -26.15839,-22.39248 -28.95273,-18.0906 -1.21889,1.87648 0.68695,4.27282 6.46304,8.12642 18.13422,12.0985 30.77541,26.35299 40.06316,45.17616 7.51771,15.23588 10.61464,25.10054 11.16852,35.57514 0.20727,3.91966 0.50338,7.12665 0.65803,7.12665 0.15464,0 0.85723,-0.3083 1.56131,-0.68511 z m 23.56644,-20.4022 c 1.42706,-2.95467 1.57299,-10.04063 0.31664,-15.37464 -4.34541,-18.44907 -18.86382,-42.35783 -37.18339,-61.23323 -10.45536,-10.77258 -18.34329,-16.27679 -23.38301,-16.31673 -1.9884,-0.0158 -3.6399,2.35347 -2.93003,4.20339 0.20848,0.54328 2.85803,2.57434 5.88792,4.51347 12.50278,8.00183 25.87433,20.8501 33.34458,32.03968 1.94739,2.91695 5.3159,8.88346 7.48558,13.25889 7.75442,15.63778 11.27526,26.83458 11.69843,37.20277 0.13219,3.23875 0.27195,5.97008 0.31058,6.06964 0.29165,0.75168 3.50136,-2.39354 4.4527,-4.36324 z m 7.34179,-4.26391 c 3.38821,-2.43323 4.64002,-4.47229 5.46868,-8.90787 1.43596,-7.68632 -3.21013,-22.97724 -10.94244,-36.01304 -4.89672,-8.25532 -4.21041,-7.93509 -8.80737,-4.10946 l -3.97599,3.30886 4.33014,8.85284 c 7.5511,15.43797 11.30281,27.89439 10.67642,35.44785 -0.16279,1.96294 -0.17104,3.56897 -0.0183,3.56897 0.1527,0 1.6237,-0.96666 3.26889,-2.14815 z m 11.78586,-10.03164 c 1.8344,-1.83444 2.9987,-5.53835 3.004,-9.55634 0,-3.70685 -6.86104,-18.23838 -12.52331,-26.50551 -5.79645,-8.46305 -7.32445,-9.59642 -4.14471,-3.07428 6.82876,14.0068 10.20369,25.32807 10.30593,34.57152 0.0743,6.71655 0.55405,7.36866 3.35809,4.56461 z m -19.53245,-59.41821 0,-2.65178 -2.7291,0 c -2.50665,0 -2.69652,0.12157 -2.32936,1.49162 0.21986,0.82039 0.40382,1.84265 0.4088,2.27169 0.009,0.77856 1.29511,1.31787 3.48951,1.46334 0.92436,0.0613 1.16015,-0.46204 1.16015,-2.57488 z m -26.74475,-6.04713 c 1.94793,-1.50282 3.54169,-3.17787 3.54169,-3.72233 0,-1.61544 -9.89413,-11.30618 -15.11052,-14.79989 -2.65918,-1.78102 -6.01917,-3.59301 -7.46662,-4.02669 -3.11037,-0.93189 -3.99801,-0.56274 -8.83596,3.67463 l -3.23797,2.83599 4.46266,2.08833 c 4.37447,2.04706 12.00397,7.63482 18.58688,13.61282 1.8231,1.65557 3.58549,3.0235 3.91643,3.03984 0.33094,0.0163 2.19547,-1.19987 4.14341,-2.70269 z m 19.4887,-4.52365 c -0.91428,-0.91428 -2.22288,-1.36223 -3.97952,-1.36223 l -2.61729,0 0.72802,2.08839 c 0.90892,2.60735 2.46148,4.18959 4.9209,5.01494 1.85912,0.62391 1.91093,0.57796 2.10805,-1.86962 0.14777,-1.83487 -0.16404,-2.87536 -1.16016,-3.87148 z M 817.63092,442.13751 c -0.23226,-0.37579 0.0339,-0.48693 0.62382,-0.26054 1.14849,0.44072 1.35863,0.9159 0.40503,0.9159 -0.3431,0 -0.80609,-0.29491 -1.02885,-0.65536 z m -4.31384,-1.66495 c -0.91154,-0.52109 -1.35903,-0.94743 -0.99441,-0.94743 0.36462,0 1.40875,0.42634 2.3203,0.94743 0.91155,0.52109 1.35904,0.94744 0.99442,0.94744 -0.36462,0 -1.40876,-0.42635 -2.32031,-0.94744 z m -3.6415,-1.64977 c -0.23225,-0.3758 0.0339,-0.48693 0.62382,-0.26054 1.1485,0.44072 1.35863,0.9159 0.40503,0.9159 -0.3431,0 -0.80608,-0.29492 -1.02885,-0.65536 z m -5.34728,-3.02741 c -1.21339,-0.97213 -1.19223,-0.98593 0.3705,-0.24167 2.0293,0.96644 2.40539,1.27266 1.5631,1.27266 -0.35571,0 -1.22582,-0.46395 -1.9336,-1.03099 z m -5.25983,-2.93909 c -0.23226,-0.3758 0.0339,-0.48693 0.62382,-0.26054 1.1485,0.44071 1.35863,0.91589 0.40503,0.91589 -0.3431,0 -0.80609,-0.29491 -1.02885,-0.65535 z m -8.1239,-5.44872 c -3.34396,-2.26339 -5.9821,-4.21307 -5.86253,-4.33265 0.19906,-0.19906 10.50072,6.5969 11.95975,7.8898 1.69765,1.50435 -0.59769,0.16524 -6.09722,-3.55715 z m 14.19166,0.73294 c -4.27656,-2.83267 -8.67197,-8.01616 -11.40183,-13.44612 -2.77118,-5.51213 -2.84485,-6.94144 -0.47139,-9.14528 1.41038,-1.30957 16.59825,-13.6913 21.18857,-17.2737 4.45926,-3.48012 21.7329,16.44309 19.72937,22.75562 -0.61258,1.93007 -22.48048,19.16589 -24.31667,19.16589 -0.89289,0 -3.02051,-0.92538 -4.72805,-2.05641 z m 5.52908,-2.2136 c 0,-2.21886 -0.71233,-2.47071 -2.61969,-0.92623 -1.33481,1.08087 -1.45048,1.41709 -0.65963,1.91743 1.82969,1.15757 3.27932,0.71941 3.27932,-0.9912 z m 11.84576,-7.80099 c 4.60573,-3.72209 8.57393,-7.05725 8.81824,-7.41147 0.90946,-1.31862 -3.12033,-9.02415 -4.71939,-9.02415 -0.98052,0 -16.91895,13.45727 -16.75311,14.14513 0.30218,1.25336 3.76993,9.0207 4.03598,9.04011 0.13433,0.01 4.01256,-3.02752 8.61828,-6.74962 z m -21.92495,-3.14657 c -0.44507,-0.71266 -0.93759,-1.16736 -1.09451,-1.01044 -0.28413,0.28413 1.16064,2.30617 1.64779,2.30617 0.14075,0 -0.10822,-0.58308 -0.55328,-1.29573 z m -3.32557,-6.49386 c -1.18727,-1.44809 -3.16886,-0.99898 -3.16886,0.71818 0,2.20902 0.60858,2.53225 2.33624,1.24078 1.09295,-0.81701 1.32373,-1.35996 0.83262,-1.95896 z m 15.06212,-6.52079 c 4.37543,-3.49311 8.06188,-6.64596 8.19211,-7.00634 0.41017,-1.13504 -2.71591,-3.87517 -4.42099,-3.87517 -1.07683,0 -4.52293,2.31375 -10.12077,6.79518 -4.66839,3.73735 -8.50276,6.94435 -8.5208,7.12666 -0.0534,0.53989 4.84006,3.25366 5.9207,3.2834 0.54692,0.015 4.57431,-2.83063 8.94975,-6.32373 z m 53.30634,21.1538 c -2.15347,-5.53923 6.93696,-29.20364 15.51219,-40.3817 6.46376,-8.4257 15.00145,-15.44473 22.18189,-18.23626 5.19004,-2.01771 12.69632,-2.11523 16.35381,-0.21244 3.88565,2.02147 5.28484,5.16523 4.70572,10.57299 -0.37417,3.49394 -0.86108,4.77084 -2.62375,6.88061 -1.19037,1.42478 -2.56313,4.03491 -3.05057,5.80027 -2.00732,7.26989 -12.547,20.71836 -19.97043,25.48196 -4.25043,2.72749 -4.80222,2.14758 -0.72852,-0.76563 5.31514,-3.801 8.75683,-7.31577 12.23817,-12.49801 4.41705,-6.5751 4.88675,-8.0141 3.52214,-10.79067 -0.59349,-1.20756 -4.29264,-5.58662 -8.22034,-9.73124 l -7.14128,-7.53567 -2.23313,1.15481 c -3.04173,1.57293 -8.70234,6.98366 -13.2229,12.63918 -7.998,10.00602 -14.96975,27.0426 -14.48819,35.40418 0.17435,3.02732 0.0165,3.66943 -0.94909,3.86017 -0.77043,0.15219 -1.40179,-0.39776 -1.88572,-1.64255 z m -84.28854,-2.92551 -2.16503,-2.04859 2.48604,1.79581 c 1.36732,0.98768 2.48604,1.90956 2.48604,2.04859 0,0.61743 -0.79243,0.11046 -2.80705,-1.79581 z m 92.47031,1.59161 c 0.63808,-0.16675 1.68222,-0.16675 2.3203,0 0.63809,0.16675 0.11602,0.30318 -1.16015,0.30318 -1.27617,0 -1.79824,-0.13643 -1.16015,-0.30318 z m 3.99147,-0.60649 c 0.22029,-0.22029 0.79208,-0.24384 1.27065,-0.0523 0.52885,0.21163 0.37177,0.36872 -0.40053,0.40053 -0.69885,0.0288 -1.09041,-0.1279 -0.87012,-0.34819 z m 12.95929,-4.5893 c 1.57476,-0.97308 3.01768,-1.61475 3.2065,-1.42593 0.45421,0.45421 -2.32236,2.18321 -4.41233,2.7476 -1.08832,0.2939 -0.67429,-0.15989 1.20583,-1.32167 z m -117.22113,-2.30256 c -1.64079,-1.43671 -2.68493,-2.60888 -2.32031,-2.60481 0.36462,0.004 1.96919,1.18848 3.56572,2.632 1.59653,1.44353 2.64066,2.61569 2.32031,2.60481 -0.32036,-0.0109 -1.92493,-1.19529 -3.56572,-2.632 z m -6.72174,-5.94444 c -0.86079,-0.71711 -1.2384,-1.31376 -0.83914,-1.32589 0.39927,-0.0121 1.2659,0.57459 1.92585,1.30383 1.53533,1.69652 0.93781,1.70865 -1.08671,0.0221 z m -8.09478,-7.30192 c -2.24257,-2.18083 -3.76974,-3.97078 -3.39371,-3.97767 0.37604,-0.007 2.45497,1.77742 4.61987,3.96514 5.11536,5.1693 4.08741,5.1798 -1.22616,0.0125 z m -15.09747,-15.10143 c -3.12604,-3.45726 -3.46711,-4.45621 -0.57127,-1.6732 1.59943,1.53712 2.75178,2.95105 2.56076,3.14207 -0.19102,0.19102 -1.08629,-0.46998 -1.98949,-1.46887 z m -8.86827,-9.44005 c -0.664,-0.73371 -1.0581,-1.48318 -0.87579,-1.66549 0.18231,-0.18231 0.87474,0.26884 1.53874,1.00254 0.66399,0.73371 1.0581,1.48318 0.87579,1.66549 -0.18231,0.18231 -0.87474,-0.26883 -1.53874,-1.00254 z m 46.51256,-0.0381 c -5.23911,-0.60868 -9.51891,-2.5811 -15.78865,-7.27645 -6.71841,-5.03137 -13.46352,-11.5397 -12.90167,-12.44878 0.6499,-1.05156 2.52997,-0.0604 6.14906,3.24174 3.82048,3.48589 13.22191,10.39388 16.24342,11.93533 5.39316,2.75139 15.8041,2.71792 15.8041,-0.0508 0,-0.27337 -1.23386,-0.69434 -2.74191,-0.93549 -10.81746,-1.72978 -25.70952,-11.19137 -41.1303,-26.13191 -4.67523,-4.52964 -8.49875,-7.97517 -8.49672,-7.65675 0.005,0.69919 6.5041,8.94433 9.60188,12.18048 2.35592,2.46117 3.16611,4.6566 1.88437,5.10624 -0.97479,0.34196 -11.7907,-12.82291 -16.85297,-20.51302 -3.70466,-5.62776 -4.43367,-7.00591 -9.4911,-17.9422 -7.05124,-15.24776 -7.88174,-25.11531 -2.42341,-28.79367 2.77684,-1.87131 5.2576,-1.8902 10.61539,-0.0808 17.46088,5.89663 47.33781,38.43722 57.93105,63.09586 4.75894,11.07771 5.77937,18.27995 3.28866,23.21161 -0.89871,1.77948 -4.47272,3.8606 -6.30705,3.67257 -0.46749,-0.0479 -2.89035,-0.32417 -5.38415,-0.6139 z m 10.55722,-8.81995 c 0.60883,-1.58657 -1.58121,-9.39312 -4.26449,-15.20106 -2.26484,-4.90223 -2.99205,-5.8576 -5.63996,-7.40937 -1.779,-1.04256 -3.39181,-1.57151 -3.88837,-1.27524 -0.46668,0.27843 -3.806,2.89152 -7.42071,5.80686 l -6.57222,5.3006 2.26308,1.92466 c 5.0693,4.31128 12.6417,8.61043 18.50521,10.50614 4.44316,1.4365 6.55934,1.54128 7.01746,0.34741 z m -13.8184,-33.40465 c -1.22294,-2.76615 -8.16126,-11.97253 -12.11586,-16.0764 -1.93247,-2.00541 -4.7052,-5.17028 -6.16164,-7.03304 -4.35408,-5.56882 -15.36118,-14.84731 -15.36118,-12.94879 0,1.87462 11.45108,15.5928 21.79838,26.11406 6.365,6.472 11.81428,11.76727 12.10952,11.76727 0.29523,0 0.17409,-0.82039 -0.26922,-1.8231 z m -29.9535,-7.83716 6.90911,-5.68259 -3.9321,-5.16541 c -4.46492,-5.86537 -11.75413,-16.9371 -13.82187,-20.99435 -1.09653,-2.15157 -2.12166,-3.03899 -4.90296,-4.24439 -4.69747,-2.03584 -8.94836,-2.04918 -10.58078,-0.0332 -1.56277,1.92993 -1.62531,7.38362 -0.1437,12.53096 1.69789,5.89875 6.56144,15.77455 9.62178,19.53771 3.77616,4.64337 8.6784,9.73387 9.37389,9.73387 0.31214,0 3.67663,-2.55716 7.47663,-5.68259 z m 178.62458,49.79173 c 0,-0.16948 0.67123,-0.66581 1.49162,-1.10295 1.35256,-0.72071 1.4068,-0.69197 0.58178,0.30815 -0.84713,1.02691 -2.0734,1.49698 -2.0734,0.7948 z m -196.25532,-5.10436 c -0.75916,-1.48026 -0.74138,-1.49804 0.40403,-0.40404 0.65897,0.62941 1.01632,1.32619 0.7941,1.54841 -0.22222,0.22222 -0.76139,-0.29275 -1.19813,-1.14437 z m -3.97767,-4.64061 c -0.75915,-1.48027 -0.74137,-1.49805 0.40403,-0.40404 0.65897,0.6294 1.01632,1.32618 0.7941,1.5484 -0.22222,0.22222 -0.76138,-0.29275 -1.19813,-1.14436 z m -4.62315,-5.35483 c -1.53959,-2.31545 -2.2327,-3.56615 -1.56445,-2.82303 2.92148,3.2488 3.70191,4.30914 3.17163,4.30914 -0.34047,0 -1.0637,-0.66875 -1.60718,-1.48611 z m -5.29484,-6.79808 c -0.855,-0.91011 -1.40788,-1.80141 -1.22862,-1.98068 0.17926,-0.17926 0.98491,0.56537 1.79031,1.65475 1.78398,2.41296 1.5348,2.55755 -0.56169,0.32593 z m -4.43977,-5.80338 c -1.42322,-1.56822 -4.24434,-5.94974 -3.09465,-4.80635 1.13043,1.12425 5.00786,6.29798 4.71998,6.29798 -0.14939,0 -0.88079,-0.67124 -1.62533,-1.49163 z m -5.32246,-7.2924 c -0.99387,-1.28508 -1.61907,-2.48604 -1.29418,-2.48604 0.1619,0 0.78303,0.74581 1.38029,1.65736 1.11762,1.7057 1.05538,2.30463 -0.0861,0.82868 z m -3.31472,-4.64061 c -0.99388,-1.28508 -1.61907,-2.48604 -1.29419,-2.48604 0.1619,0 0.78304,0.74581 1.3803,1.65736 1.11762,1.70569 1.05538,2.30462 -0.0861,0.82868 z m -4.68034,-6.62945 c -2.41964,-3.5733 -2.94306,-4.47487 -2.59796,-4.47487 0.1522,0 1.36616,1.64078 2.69767,3.64619 1.33152,2.00541 2.28307,3.6462 2.11455,3.6462 -0.16852,0 -1.16494,-1.26788 -2.21426,-2.81752 z m -6.9115,-10.60711 c -1.58739,-2.48503 -2.01526,-3.55997 -0.85761,-2.15456 1.29383,1.57073 2.48291,3.64619 2.08898,3.64619 -0.1532,0 -0.70732,-0.67123 -1.23137,-1.49163 z m -4.8347,-7.7896 c -0.56566,-1.09386 -0.8793,-1.98883 -0.69699,-1.98883 0.18231,0 0.79428,0.89497 1.35994,1.98883 0.56565,1.09386 0.8793,1.98883 0.69699,1.98883 -0.18231,0 -0.79428,-0.89497 -1.35994,-1.98883 z m -4.66787,-7.99944 c -0.24034,-0.38887 -0.2948,-0.84922 -0.12102,-1.02301 0.17377,-0.17378 0.49261,0.14441 0.70852,0.70705 0.44827,1.16818 0.0662,1.37366 -0.5875,0.31596 z m -4.41105,-8.04937 c -1.80929,-3.39855 -2.84262,-4.49374 -5.92953,-6.28451 -4.09866,-2.3777 -9.24113,-7.68054 -11.23127,-11.58155 -1.63004,-3.19515 -1.60445,-3.60126 0.35006,-5.55578 1.60151,-1.60151 1.60513,-1.63185 0.27967,-2.34122 -0.73858,-0.39527 -1.76705,-0.55591 -2.28548,-0.35697 -1.38607,0.53189 -1.14738,-0.53175 0.44216,-1.97026 1.36498,-1.23531 1.43836,-1.22351 5.13857,0.82627 l 3.75381,2.07946 8.28605,-6.62153 c 4.55733,-3.64185 8.376,-7.00941 8.48595,-7.48347 0.26842,-1.15732 -3.01187,-3.66801 -4.76418,-3.64645 -0.77123,0.009 -4.6838,2.69174 -8.69461,5.96055 -4.01082,3.26881 -7.51614,5.94597 -7.7896,5.94924 -0.27347,0.003 -0.49721,-1.0747 -0.49721,-2.39551 0,-1.86515 0.18788,-2.24556 0.84124,-1.70331 0.62851,0.52161 2.43074,-0.629 7.12666,-4.5499 3.45698,-2.88644 6.95782,-5.54376 7.77966,-5.90515 1.86175,-0.81867 4.0795,0.0582 7.98267,3.15633 5.89821,4.68164 12.78321,16.06349 11.72804,19.38805 -0.20931,0.65945 -5.14062,5.01964 -10.95849,9.68932 -6.59935,5.29693 -10.57794,8.93915 -10.57794,9.68359 0,0.65629 0.75083,2.67496 1.66853,4.48592 2.40307,4.74224 1.46634,4.06275 -1.13476,-0.82312 z m -2.52261,-8.10953 c 0,-2.21887 -0.71233,-2.47071 -2.61968,-0.92623 -1.33482,1.08087 -1.45049,1.41708 -0.65963,1.91743 1.82968,1.15758 3.27931,0.71942 3.27931,-0.9912 z m 12.16204,-7.99447 c 9.08134,-7.2414 9.37211,-7.73894 7.11181,-12.1695 -2.08646,-4.0898 -2.99136,-4.51397 -5.51618,-2.58574 -5.56075,4.24678 -14.75208,11.92421 -14.75208,12.32225 0,1.02064 3.98312,9.39029 4.39421,9.23347 0.2466,-0.0941 4.18961,-3.15429 8.76224,-6.80048 z m -22.24123,-2.9531 c -0.44506,-0.71266 -0.93759,-1.16735 -1.09451,-1.01044 -0.28413,0.28414 1.16065,2.30618 1.6478,2.30618 0.14075,0 -0.10823,-0.58308 -0.55329,-1.29574 z m 282.57024,-27.66296 c 0.0279,-0.7271 3.29772,-3.07981 3.70888,-2.66866 0.17837,0.17838 -0.58785,0.97382 -1.7027,1.76766 -1.11485,0.79383 -2.01763,1.1993 -2.00618,0.901 z m -287.68643,-5.12772 c -0.0288,-0.69885 0.12789,-1.0904 0.34819,-0.87012 0.22029,0.22029 0.24384,0.79208 0.0523,1.27065 -0.21163,0.52886 -0.36872,0.37177 -0.40053,-0.40053 z M 969.9529,230.65059 c 0.92708,-0.72924 1.93687,-1.31925 2.24398,-1.31114 0.72399,0.0191 -2.56984,2.60286 -3.34296,2.62229 -0.32264,0.008 0.17191,-0.5819 1.09898,-1.31115 z M 676.79119,210.26505 c 0.0224,-0.63808 0.74681,-2.65177 1.60985,-4.47488 1.40471,-2.96733 1.52856,-3.07812 1.18172,-1.05707 -0.47838,2.78751 -0.3856,2.74106 7.04556,-3.52704 3.06276,-2.58342 9.17842,-7.65244 13.59036,-11.26451 4.41193,-3.61206 8.17085,-6.74945 8.35316,-6.97198 0.18231,-0.22253 2.63491,-2.32244 5.45023,-4.66648 2.81533,-2.34404 5.00616,-4.3745 4.86852,-4.51214 -0.13764,-0.13763 -1.39694,0.0682 -2.79846,0.45733 -3.09301,0.85885 -4.40217,0.90648 -3.9303,0.14296 0.33403,-0.54046 1.57282,-0.90079 9.2146,-2.68026 6.03231,-1.40468 5.55788,-0.13522 -2.33389,6.24496 -12.95438,10.47311 -33.99463,27.25839 -37.38305,29.82306 -0.96345,0.72924 -2.31296,1.84796 -2.99889,2.48604 -0.68594,0.63809 -1.39632,1.16016 -1.57863,1.16016 -0.18231,0 -0.31316,-0.52207 -0.29078,-1.16016 z m 4.26845,-10.10991 c 0.56566,-1.09386 1.17763,-1.98883 1.35994,-1.98883 0.18231,0 -0.13134,0.89497 -0.69699,1.98883 -0.56566,1.09386 -1.17763,1.98883 -1.35994,1.98883 -0.18231,0 0.13133,-0.89497 0.69699,-1.98883 z m 10.64657,-13.96303 c 2.47265,-2.58088 10.76339,-8.27086 11.28756,-7.7467 0.21789,0.2179 -0.89908,1.23137 -2.48217,2.25217 -1.58309,1.02079 -4.32765,3.13141 -6.09903,4.69027 -3.70435,3.25993 -5.59825,3.82276 -2.70636,0.80426 z m 157.74135,-3.27353 c 0.22535,-0.36462 0.85721,-0.66293 1.40414,-0.66293 0.54693,0 0.81005,0.29831 0.5847,0.66293 -0.22535,0.36462 -0.85721,0.66294 -1.40414,0.66294 -0.54693,0 -0.81004,-0.29832 -0.5847,-0.66294 z"
       id="path3011"
       inkscape:connector-curvature="0" />
  </g>
</svg>
